<?xml version="1.0" standalone="no"?>
<!DOCTYPE svg PUBLIC "-//W3C//DTD SVG 20010904//EN"
 "http://www.w3.org/TR/2001/REC-SVG-20010904/DTD/svg10.dtd">
<svg version="1.0" xmlns="http://www.w3.org/2000/svg"
 width="512.000000pt" height="512.000000pt" viewBox="0 0 512.000000 512.000000"
 preserveAspectRatio="xMidYMid meet">
<metadata>
Created by potrace 1.14, written by Peter Selinger 2001-2017
</metadata>
<g transform="translate(0.000000,512.000000) scale(0.100000,-0.100000)"
fill="#000000" stroke="none">
<path d="M2290 4774 c-14 -2 -70 -11 -125 -20 -841 -129 -1557 -777 -1774
-1604 -57 -220 -66 -292 -66 -570 0 -281 12 -380 74 -602 141 -501 462 -939
903 -1234 394 -264 876 -394 1350 -364 167 11 252 24 398 60 399 100 755 303
1042 596 315 321 507 691 600 1154 20 103 22 144 23 385 0 297 -12 391 -75
612 -210 730 -792 1309 -1518 1514 -207 57 -315 72 -572 75 -129 1 -246 0
-260 -2z m1575 -2214 l0 -1155 -1355 0 -1355 0 -3 1145 c-1 630 0 1151 3 1158
3 10 280 12 1357 10 l1353 -3 0 -1155z"/>
<path d="M1352 2573 l3 -958 1153 -3 1152 -2 0 960 0 960 -1155 0 -1155 0 2
-957z m353 708 c180 -87 185 -90 185 -120 0 -30 -5 -33 -175 -115 -225 -109
-215 -106 -215 -63 l0 34 150 69 c83 38 150 72 150 75 0 3 -67 37 -150 75
-149 68 -150 69 -150 101 0 18 4 33 10 33 5 0 93 -40 195 -89z m645 -411 c0
-19 -7 -20 -205 -20 -198 0 -205 1 -205 20 0 19 7 20 205 20 198 0 205 -1 205
-20z"/>
</g>
</svg>
